<svg width="514" height="393" version="1.1" xmlns="http://www.w3.org/2000/svg" desc="Created with imagetracer.js version 1.2.6">
  <path fill="currentColor" stroke="currentColor" stroke-width="1" opacity="0.87" d="M 232.5 4 L 281.5 4 L 282.5 5 L 292.5 5 L 293.5 6 L 300.5 6 L 301.5 7 L 319.5 9 L 360.5 20 Q 419.4 40.6 459 80.5 Q 485.3 106.1 500 143.5 L 508 173.5 Q 506.3 179.8 509 181.5 L 509 213.5 L 504 239.5 L 492 269.5 Q 473.8 303.3 445.5 327 Q 405.2 361.7 347.5 379 L 313.5 387 L 292.5 389 L 291.5 390 L 281.5 390 L 280.5 391 L 233.5 391 L 232.5 390 L 222.5 390 L 221.5 389 L 206.5 388 L 173.5 381 Q 148.3 374.2 126.5 364 Q 78 341.5 45 303.5 Q 21.7 277.3 10 239.5 L 5 213.5 L 5 181.5 L 10 155.5 L 23 123.5 Q 37.2 97.7 57.5 78 Q 90.1 46.1 135.5 27 L 159.5 18 L 185.5 11 L 206.5 7 L 220.5 6 L 221.5 5 L 231.5 5 L 232.5 4 Z M 248 13 L 247 14 L 231 14 L 230 15 L 221 15 L 220 16 L 201 18 Q 175 23 153 31 Q 107 48 74 77 Q 50 97 34 125 Q 25 141 19 161 L 15 181 L 15 193 L 14 194 L 16 221 L 24 250 Q 36 278 55 300 Q 90 339 143 360 L 165 368 L 196 376 L 213 378 L 214 379 L 221 379 L 222 380 L 249 381 L 250 382 L 283 381 L 284 380 L 308 378 L 340 371 L 359 365 Q 407 348 442 317 Q 465 296 481 269 Q 490 253 495 235 L 499 215 L 499 203 L 500 202 L 499 181 L 497 174 L 497 169 L 490 146 Q 478 117 459 96 Q 421 53 362 31 L 336 23 L 302 16 L 285 15 L 284 14 L 268 14 L 267 13 L 248 13 Z " />
  <path fill="currentColor" stroke="currentColor" stroke-width="1" opacity="0.87" d="M 233.5 19 L 280.5 19 L 281.5 20 L 299.5 21 L 322.5 25 L 360.5 36 Q 419.5 57.5 457 100.5 Q 477 123 488 154.5 L 494 182.5 L 494 212.5 L 490 233.5 Q 484.8 252.3 476 267.5 Q 460 295 436.5 315 Q 399 347.5 345.5 364 L 317.5 371 L 299.5 373 L 298.5 374 L 291.5 374 L 290.5 375 L 280.5 375 L 279.5 376 L 234.5 376 L 233.5 375 L 223.5 375 L 222.5 374 L 208.5 373 L 187.5 369 Q 161.1 362.9 138.5 353 Q 89.6 331.9 57 294.5 Q 34.8 269.7 24 233.5 L 20 212.5 L 20 182.5 L 26 154.5 L 38 127.5 Q 54.4 99.4 78.5 79 Q 107.3 54.3 145.5 39 L 171.5 30 L 191.5 25 L 214.5 21 L 221.5 21 L 222.5 20 L 232.5 20 L 233.5 19 Z M 250 22 L 249 23 L 222 24 L 221 25 L 202 27 L 180 32 L 152 41 Q 111 56 82 82 Q 57 102 41 131 Q 32 146 27 166 L 24 182 L 24 194 L 23 195 L 25 220 L 31 243 Q 42 271 60 292 Q 94 331 147 352 L 180 363 L 208 369 L 232 371 L 233 372 L 252 372 L 253 373 L 282 372 L 283 371 L 307 369 L 335 363 L 360 355 Q 401 339 433 313 Q 457 293 473 265 Q 482 249 487 230 L 490 214 L 490 202 L 491 201 L 489 176 L 483 153 Q 473 125 455 105 Q 420 65 368 43 Q 342 33 313 27 L 294 25 L 293 24 L 284 24 L 283 23 L 250 22 Z " />
  <path fill="currentColor" stroke="currentColor" stroke-width="1" opacity="0.87" d="M 259.5 60 L 266 70.5 L 266.5 74 Q 271.3 65.8 282.5 64 L 290 69.5 L 291 76.5 Q 288.9 88.9 279.5 94 L 274 97.5 L 275.5 98 L 289.5 87 L 302 90.5 L 292.5 101 L 281.5 100 L 274 102.5 L 276.5 103 L 277.5 102 L 290.5 102 L 302 109.5 Q 305.4 112.1 304 119.5 L 300.5 124 Q 295.8 127.8 285.5 126 L 275.5 121 L 277.5 124 L 284 126 L 286 141 L 272 134.5 Q 273.3 122.2 266.5 118 L 266 119.5 Q 272.7 125.3 271 139.5 L 265.5 149 Q 263.2 152.2 256.5 151 L 251 146.5 Q 246.2 140.3 248 127.5 L 252 118.5 L 250 118 Q 246.3 124.9 246 135 L 233.5 141 L 233 139.5 L 234 138.5 Q 233.1 130.2 235 126 Q 242.6 123.9 247 117.5 L 246.5 116 Q 240.2 126.2 224.5 127 L 215 122.5 Q 212.3 120.2 213 114.5 L 219.5 106 L 228.5 102 L 243 101.5 Q 239.3 99.3 232.5 100 L 231.5 101 L 225 101 L 225 99.5 L 216 90.5 L 230.5 88 Q 235.5 95 244.5 98 L 245 96 Q 235.8 94 231 86.5 Q 227.2 81.8 227 73.5 L 231.5 66 L 240.5 65 Q 248 68 252 74.5 L 257.5 89 L 258 87.5 L 256 79.5 L 253 74.5 L 253 71.5 L 259.5 60 Z M 266 74 L 264 76 L 265 78 L 266 76 L 266 74 Z M 264 78 L 261 87 Q 260 90 263 89 L 263 83 L 264 82 L 264 78 Z M 256 92 L 252 94 L 247 101 Q 246 108 249 111 L 255 115 Q 263 116 267 113 L 270 109 L 271 105 L 270 99 L 269 108 L 267 111 L 262 114 L 254 113 L 248 106 Q 247 100 250 98 L 257 93 Q 263 92 265 95 L 266 95 Q 263 91 256 92 Z M 268 96 L 267 98 L 269 99 L 268 96 Z M 271 116 L 270 118 L 275 121 L 271 116 Z " />
  <path fill="currentColor" stroke="currentColor" stroke-width="1" opacity="0.87" d="M 111.5 186 L 121.5 188 L 125 186 L 125 209.5 L 123 210 Q 122 198.7 115.5 192 L 112 193.5 L 114 204.5 L 126 231.5 L 127 240.5 Q 124.7 241.8 126 246.5 L 121.5 252 Q 114.1 253.4 111.5 250 L 107 252 L 107.5 228 L 109 229.5 L 112 241.5 L 116.5 247 L 119 245.5 L 119 237.5 L 106 205.5 L 106 191.5 L 109.5 187 L 111.5 186 Z " />
  <path fill="currentColor" stroke="currentColor" stroke-width="1" opacity="0.87" d="M 262.5 186 Q 269.7 185.3 272 189.5 L 273 191.5 L 273 203.5 L 269 200.5 L 268 193.5 L 265.5 191 Q 263.3 190.3 264 192.5 L 263 193.5 L 263 222 Q 268.2 219.9 267 224.5 L 263 228.5 L 263 246.5 L 267 252 L 253.5 252 L 253 250.5 L 256 247.5 L 256 227.5 L 252 223.5 L 253.5 222 L 256 221.5 L 256 192.5 L 258 188 L 262.5 186 Z " />
  <path fill="currentColor" stroke="currentColor" stroke-width="1" opacity="0.87" d="M 343 186 L 352.5 186 L 353 186.5 L 353 246.5 L 357 251.5 L 343 252 L 346 247.5 L 346 190.5 L 343 186 Z " />
  <path fill="currentColor" stroke="currentColor" stroke-width="1" opacity="0.87" d="M 395 186 L 404.5 186 L 405 186.5 L 405 247.5 L 408 252 L 398.5 252 L 396.5 251 Q 395 253.5 389.5 252 L 387 249.5 L 385 242.5 L 384 219.5 Q 386.7 217.7 385 211.5 L 388 204 Q 390.1 202.4 395.5 203 L 398 204.5 L 398 190.5 L 395 186 Z M 395 208 L 392 215 L 392 241 L 395 247 L 398 245 L 398 212 L 397 210 L 395 208 Z " />
  <path fill="currentColor" stroke="currentColor" stroke-width="1" opacity="0.87" d="M 163.5 203 Q 171.1 201.9 173 206.5 L 175 211.5 L 175 227 L 163 227 L 163 240.5 L 164 244.5 L 167.5 248 L 174.5 243 L 175 246.5 L 170.5 252 Q 161 254 159 248.5 L 156 241.5 L 155 218.5 L 157 209.5 L 161.5 204 L 163.5 203 Z M 164 208 L 163 211 L 163 223 L 168 223 L 168 211 L 167 210 Q 168 207 164 208 Z " />
  <path fill="currentColor" stroke="currentColor" stroke-width="1" opacity="0.87" d="M 213.5 203 Q 221.1 201.9 223 206.5 L 225 211.5 L 225 227 L 213 227 L 213 241.5 L 215 247 L 217.5 248 L 223 244.5 Q 222.3 241.9 225 243 Q 225.3 249.5 220.5 252 Q 210 254 208 247.5 L 205 235.5 L 205 217.5 L 207 209.5 L 211.5 204 L 213.5 203 Z M 214 208 L 213 211 L 213 223 L 218 223 L 218 211 L 217 210 Q 218 207 214 208 Z " />
  <path fill="currentColor" stroke="currentColor" stroke-width="1" opacity="0.87" d="M 303.5 203 Q 311.1 201.9 313 206.5 L 315 211.5 L 315 227 L 303 227 L 303 241.5 L 307.5 248 L 313 244.5 Q 312.3 241.9 315 243 Q 315.3 249.5 310.5 252 Q 300 254 298 247.5 L 295 234.5 L 295 217.5 L 297 209.5 L 301.5 204 L 303.5 203 Z M 304 208 L 303 211 L 303 223 L 308 223 L 308 211 L 307 210 Q 308 207 304 208 Z " />
  <path fill="currentColor" stroke="currentColor" stroke-width="1" opacity="0.87" d="M 340 275 Q 343.7 273.8 342 279 Q 338.3 280.2 340 275 Z " />
  <path fill="currentColor" stroke="currentColor" stroke-width="1" opacity="0.87" d="M 344 275 Q 347.7 273.8 346 279 Q 342.3 280.2 344 275 Z " />
  <path fill="currentColor" stroke="currentColor" stroke-width="1" opacity="0.87" d="M 107 279 Q 109.7 277.9 109 280.5 L 117.5 296 L 118 279 L 120 279.5 L 120 302 L 117 300.5 L 109.5 286 L 109 302 L 107 301.5 L 107 279 Z " />
  <path fill="currentColor" stroke="currentColor" stroke-width="1" opacity="0.87" d="M 126 279 L 137.5 279 L 138 282 L 128 282 L 128 289 L 136.5 289 L 137 291 L 128 291 L 128 299 L 137.5 299 L 138 302 L 126 302 L 126 279 Z " />
  <path fill="currentColor" stroke="currentColor" stroke-width="1" opacity="0.87" d="M 143 279 L 145 279.5 L 145 294.5 L 148.5 300 L 153 299 L 154 296.5 L 154 279 L 156 279.5 L 156 297.5 L 152.5 302 Q 145.5 303.5 144 299.5 L 143 296.5 L 143 279 Z " />
  <path fill="currentColor" stroke="currentColor" stroke-width="1" opacity="0.87" d="M 162 279 L 173.5 279 L 174 282 L 164 282 L 164 289 L 173.5 289 L 174 291 L 164 291 L 164 299 L 173.5 299 L 174 302 L 162 302 L 162 279 Z " />
  <path fill="currentColor" stroke="currentColor" stroke-width="1" opacity="0.87" d="M 189 279 L 202.5 279 L 203 282 L 197 282 L 197 301.5 L 195 302 L 195 282.5 L 194.5 282 L 189 282 L 189 279 Z " />
  <path fill="currentColor" stroke="currentColor" stroke-width="1" opacity="0.87" d="M 207 279 L 209 279.5 L 209 302 L 207 301.5 L 207 279 Z " />
  <path fill="currentColor" stroke="currentColor" stroke-width="1" opacity="0.87" d="M 215 279 Q 223.3 277.8 227 280 Q 228.8 282.4 228 288.5 Q 224.5 290 227 291.5 L 228 302 Q 224.5 303.1 226 295.5 L 223.5 292 L 217 292 L 217 301.5 L 215 302 L 215 279 Z M 217 282 L 217 290 L 225 289 L 226 287 L 225 284 L 225 282 L 217 282 Z " />
  <path fill="currentColor" stroke="currentColor" stroke-width="1" opacity="0.87" d="M 238.5 279 Q 246.5 277.5 248 282.5 L 250 291.5 L 248 298.5 L 244.5 302 Q 236.5 303.5 235 298.5 L 233 289.5 L 235 282.5 L 238.5 279 Z M 241 281 L 236 287 Q 235 293 237 297 Q 238 301 243 300 L 247 295 Q 248 288 246 285 Q 245 280 241 281 Z " />
  <path fill="currentColor" stroke="currentColor" stroke-width="1" opacity="0.87" d="M 255 279 L 257 279.5 L 257 299 L 266 299 L 266 302 L 255 302 L 255 279 Z " />
  <path fill="currentColor" stroke="currentColor" stroke-width="1" opacity="0.87" d="M 271 279 L 282.5 279 L 283 282 L 273 282 L 273 289 L 281.5 289 L 282 291 L 273 291 L 273 299 L 282.5 299 L 283 302 L 271 302 L 271 279 Z " />
  <path fill="currentColor" stroke="currentColor" stroke-width="1" opacity="0.87" d="M 288 279 L 297.5 279 L 300 281.5 L 301 287.5 L 299 290.5 Q 302 294.8 301 302 Q 298.3 303.1 299 300.5 Q 296.5 299 298 293.5 L 296.5 292 L 290 292 L 290 301.5 L 288 302 L 288 279 Z M 290 282 L 290 290 L 296 290 L 298 287 L 298 285 L 298 282 L 290 282 Z " />
  <path fill="currentColor" stroke="currentColor" stroke-width="1" opacity="0.87" d="M 318 279 L 320 279.5 L 320 289.5 L 322 288.5 L 329.5 279 Q 332.8 277.9 332 280.5 L 325 289.5 L 332 299.5 L 332 302 L 329 300.5 L 323.5 292 L 320 294.5 L 320 301.5 L 318 302 L 318 279 Z " />
  <path fill="currentColor" stroke="currentColor" stroke-width="1" opacity="0.87" d="M 336 279 L 339 279.5 L 339 297.5 L 343.5 300 L 346 299 L 347 296.5 L 347 279 L 350 279.5 L 350 294.5 L 348 301 Q 345.9 302.6 340.5 302 L 338 301 L 336 295.5 L 336 279 Z " />
  <path fill="currentColor" stroke="currentColor" stroke-width="1" opacity="0.87" d="M 360.5 279 Q 367 278 369 281.5 L 370 287 Q 367.3 288.1 368 285.5 L 364.5 281 L 359 283.5 Q 356.3 286.8 357 293.5 L 360.5 299 L 363.5 300 L 367 297.5 L 368 292 L 371 292.5 Q 370.1 299.1 365.5 302 Q 359 303 357 299.5 Q 353.5 295.5 355 286.5 L 358.5 280 L 360.5 279 Z " />
  <path fill="currentColor" stroke="currentColor" stroke-width="1" opacity="0.87" d="M 376 279 L 378 279.5 L 378 289 L 387 289 L 387 279.5 L 389 279 L 389 301.5 L 387 302 L 387 291 L 378 291 L 378 301.5 L 376 302 L 376 279 Z " />
  <path fill="currentColor" stroke="currentColor" stroke-width="1" opacity="0.87" d="M 395 279 L 406.5 279 L 407 282 L 398 282 L 398 289 L 406.5 289 L 407 291 L 398 291 L 398 299 L 407 299 L 407 302 L 395 302 L 395 279 Z " />
  </svg>